<svg width="40" height="40" viewBox="0 0 40 40" fill="none" xmlns="http://www.w3.org/2000/svg">
<rect width="40" height="40" fill="#850080"/>
<path d="M20.2182 2.15396C20.3494 2.12774 20.6116 2.11462 21.005 2.11462C21.6082 2.14085 22.159 2.2851 22.6573 2.54736C23.6801 3.07189 24.1915 3.91113 24.1915 5.06509C24.1915 5.53717 24.0866 5.98301 23.8768 6.40264C23.7719 6.6649 23.6146 6.88783 23.4047 7.07141C23.1425 7.33367 22.9196 7.50415 22.736 7.58282C22.0016 7.92377 21.3066 7.93688 20.651 7.62216C19.9953 7.28122 19.7593 6.67802 19.9429 5.81254C19.9691 5.70764 19.9953 5.60273 20.0215 5.49783C20.2051 4.89462 20.533 4.44877 21.005 4.16028C21.1362 4.0816 21.0444 4.01604 20.7297 3.96358C20.5461 3.96358 20.4149 3.98981 20.3363 4.04226C20.1264 4.19962 19.9822 4.38321 19.9035 4.59302C19.7986 4.80283 19.5232 6.00924 19.0774 8.21226C18.4742 11.0972 18.1726 12.6445 18.1726 12.8543C18.1726 12.8806 18.8807 12.8937 20.2969 12.8937H22.4213L22.5786 13.0117C22.6835 13.1428 22.6704 13.4969 22.5393 14.0739C22.4081 14.6508 22.2901 14.9656 22.1852 15.018C22.1065 15.0705 21.346 15.0967 19.9035 15.0967C18.4611 15.0967 17.7398 15.1229 17.7398 15.1754L16.717 20.3682L15.5368 26.4658C14.8287 29.8752 14.1468 32.3143 13.4912 33.783C12.6519 35.7237 11.5766 36.9957 10.2653 37.5989C9.89816 37.7825 9.50476 37.8874 9.08514 37.9136C7.93118 37.9661 7.01326 37.612 6.33137 36.8515C6.27892 36.8252 6.23958 36.7859 6.21335 36.7334C5.84618 36.2089 5.6626 35.6319 5.6626 35.0025C5.6626 34.5042 5.7675 34.0452 5.97731 33.6256C6.08222 33.3634 6.23958 33.1404 6.44939 32.9568C6.71165 32.6946 6.93458 32.5241 7.11816 32.4454C7.8525 32.1045 8.5475 32.0914 9.20316 32.4061C9.85882 32.747 10.0949 33.3502 9.91127 34.2157C9.88504 34.3206 9.85882 34.4255 9.83259 34.5304C9.64901 35.1336 9.32118 35.5795 8.8491 35.868C8.69174 35.9729 8.78354 36.0253 9.12448 36.0253C9.33429 36.0253 9.49165 35.986 9.59655 35.9073C9.9375 35.6451 10.1998 34.9632 10.3833 33.8617C10.6456 32.2094 11.039 30.3473 11.5635 28.2754L12.3503 24.7349C13.583 18.1521 14.1993 14.9524 14.1993 15.136C14.1993 15.1098 13.5961 15.0967 12.3897 15.0967C11.1046 15.0967 10.4096 15.0049 10.3047 14.8213C10.2522 14.7426 10.2916 14.441 10.4227 13.9165C10.5538 13.392 10.6587 13.0904 10.7374 13.0117L10.8554 12.8937H12.7437H14.632V12.815L15.0254 10.8873C15.5499 8.15981 16.0614 6.25839 16.5597 5.18311C17.3727 3.53085 18.5922 2.52113 20.2182 2.15396Z" fill="white"/>
<path d="M20.1704 17.9347C20.2183 17.9028 20.3301 17.8868 20.5057 17.8868C21.4318 17.9506 22.7969 17.9666 24.6012 17.9347C25.7508 17.9028 26.3176 17.8868 26.3016 17.8868H26.5411L26.613 17.9586C26.6768 18.0224 26.7088 18.0782 26.7088 18.1261L26.4693 19.0591V19.083C26.4373 19.1787 26.2936 19.2265 26.0382 19.2265L25.5831 19.2983L24.9365 19.4897L26.3016 23.6524L29.1756 20.2313C29.2874 20.1037 29.3433 20.032 29.3433 20.016C29.4071 19.8884 29.4391 19.7848 29.4391 19.705C29.3912 19.4817 29.1676 19.3302 28.7685 19.2505C28.6886 19.2345 28.6088 19.2265 28.529 19.2265C28.4332 19.2265 28.3613 19.2026 28.3134 19.1548C28.2496 19.075 28.2575 18.8597 28.3374 18.5088C28.4172 18.158 28.497 17.9586 28.5769 17.9108C28.6248 17.8948 28.8962 17.8948 29.3912 17.9108C30.5567 17.9746 31.874 17.9825 33.3429 17.9347C33.4707 17.9187 33.5744 17.9108 33.6543 17.9108C34.0694 17.8948 34.3089 17.9427 34.3728 18.0543C34.3887 18.1022 34.3648 18.2856 34.3009 18.6045C34.2051 18.9235 34.1413 19.1069 34.1093 19.1548L34.0375 19.2265H33.6064C32.5366 19.2744 31.7143 19.5057 31.1395 19.9203C30.8681 20.1277 30.0458 21.0607 28.6727 22.7193C27.3794 24.2504 26.7487 25 26.7806 24.9681C26.7647 25 27.1718 26.2919 28.0021 28.8437C28.8323 31.3317 29.2714 32.6236 29.3193 32.7193C29.3672 32.7671 29.4391 32.7911 29.5349 32.7911C29.7584 32.8549 30.2135 32.8868 30.9 32.8868H31.379L31.4748 32.9585C31.5227 33.0383 31.5467 33.1021 31.5467 33.1499C31.5467 33.4051 31.4668 33.7161 31.3072 34.0829C31.2593 34.1786 31.1076 34.2185 30.8521 34.2025C30.7883 34.2025 30.6525 34.2025 30.445 34.2025C29.3592 34.1387 27.8983 34.1308 26.0621 34.1786C25.9025 34.1946 25.7667 34.2025 25.655 34.2025C25.1121 34.2185 24.8008 34.1706 24.7209 34.059L24.697 33.9872L24.8167 33.5088C24.8966 33.1419 24.9844 32.9426 25.0802 32.9107C25.1121 32.9107 25.1999 32.9027 25.3436 32.8868C25.6789 32.8549 25.9983 32.7911 26.3016 32.6954L26.4932 32.6236L25.631 30.016L24.7688 27.3844L22.8289 29.705C21.5196 31.2679 20.857 32.0734 20.841 32.1212C20.6814 32.3923 20.7772 32.6156 21.1284 32.7911C21.2562 32.8389 21.4078 32.8708 21.5835 32.8868C21.7751 32.8868 21.8948 32.9426 21.9427 33.0542C21.9587 33.134 21.9268 33.3174 21.8469 33.6045C21.7831 33.9075 21.7192 34.0909 21.6553 34.1547L21.5835 34.2265H21.2961C19.9708 34.1627 18.6775 34.1467 17.4162 34.1786C16.6019 34.2105 16.1867 34.2265 16.1708 34.2265H15.9792L15.9073 34.1547C15.8435 34.0909 15.8115 34.0351 15.8115 33.9872L16.0271 33.0303C16.0909 32.9346 16.2825 32.8868 16.6019 32.8868C17.4641 32.8389 18.1666 32.6794 18.7095 32.4083C18.949 32.2807 19.1805 32.1053 19.404 31.882C19.7074 31.5789 20.5536 30.5821 21.9427 28.8916C23.5075 27.0415 24.2898 26.1005 24.2898 26.0686L22.1343 19.4419C22.0705 19.3143 21.6154 19.2425 20.7692 19.2265C20.2423 19.2265 19.9549 19.1787 19.907 19.083C19.875 19.0352 19.891 18.8517 19.9549 18.5328C20.0347 18.1978 20.1066 17.9985 20.1704 17.9347Z" fill="white"/>
</svg>
